<svg xmlns="http://www.w3.org/2000/svg" viewBox="0 0 32 26" width="32" height="26">
	<defs>
		<clipPath clipPathUnits="userSpaceOnUse" id="cp1">
			<path d="M-1484 -4575L436 -4575L436 1623L-1484 1623Z" />
		</clipPath>
	</defs>
	<style>
		tspan { white-space:pre }
		.shp0 { fill: #6ab04c } 
	</style>
	<g id="Motamakin Before Login" clip-path="url(#cp1)">
		<g id="Group 2100">
			<g id="Group 2438">
				<g id="Group 2813">
					<g id="Get work done in over 1250 different categories">
						<g id="Group 1871">
							<g id="Group 1870">
								<path id="Icon metro-chart-bars" class="shp0" d="M0.68 21.68L31.53 21.68L31.53 25.53L0.68 25.53L0.68 21.68ZM4.54 13.96L8.4 13.96L8.4 19.75L4.54 19.75L4.54 13.96ZM10.32 6.25L14.18 6.25L14.18 19.75L10.32 19.75L10.32 6.25ZM16.11 12.04L19.96 12.04L19.96 19.75L16.11 19.75L16.11 12.04ZM21.89 0.47L25.75 0.47L25.75 19.75L21.89 19.75L21.89 0.47Z" />
							</g>
						</g>
					</g>
				</g>
			</g>
		</g>
	</g>
</svg>