<svg xmlns="http://www.w3.org/2000/svg" viewBox="0 0 44 23" width="44" height="23">
	<defs>
		<clipPath clipPathUnits="userSpaceOnUse" id="cp1">
			<path d="M-279 -4577L1641 -4577L1641 1621L-279 1621Z" />
		</clipPath>
	</defs>
	<style>
		tspan { white-space:pre }
		.shp0 { fill: #6ab04c } 
	</style>
	<g id="Motamakin Before Login" clip-path="url(#cp1)">
		<g id="Group 2100">
			<g id="Group 2438">
				<g id="Group 2813">
					<g id="Get work done in over 1250 different categories">
						<g id="Group 1871">
							<g id="Group 1870">
								<path id="Icon awesome-php" fill-rule="evenodd" class="shp0" d="M43.6 11.68C43.6 17.92 33.99 22.97 22.14 22.97C10.29 22.97 0.68 17.92 0.68 11.68C0.68 5.45 10.29 0.39 22.14 0.39C33.99 0.39 43.6 5.45 43.6 11.68ZM1.8 11.68C1.8 17 10.64 21.84 22.14 21.84C33.63 21.84 42.48 17 42.48 11.68C42.48 6.36 33.64 1.52 22.14 1.52C10.65 1.52 1.8 6.36 1.8 11.68ZM9.4 6.69L14.14 6.69C15.57 6.69 16.61 7.06 17.26 7.81C18.51 9.25 18.05 12.11 16.3 13.72C14.72 15.2 13.01 15 10.25 15L9.67 18.01L7.21 18.01L9.4 6.69ZM11.53 8.48L10.61 13.21C12.91 13.21 14.78 13.49 15.31 10.78C15.81 8.2 14.08 8.48 11.53 8.48ZM22.11 3.68L21.53 6.69C23.64 6.69 25.6 6.53 26.55 7.4C27.54 8.32 27.06 9.48 25.99 14.99L23.51 14.99C24.54 9.66 24.74 9.22 24.36 8.82C24 8.43 23.17 8.51 21.18 8.51L19.92 14.99L17.47 14.99L19.66 3.68L22.11 3.68ZM26.45 18.01L28.65 6.69L33.39 6.69C34.81 6.69 35.86 7.06 36.51 7.81C37.75 9.25 37.3 12.11 35.55 13.72C34 15.17 32.4 15 29.5 15L28.91 18.01L26.45 18.01ZM30.77 8.48L29.85 13.21C32.09 13.21 34.01 13.53 34.55 10.78C35.05 8.2 33.33 8.48 30.77 8.48Z" />
							</g>
						</g>
					</g>
				</g>
			</g>
		</g>
	</g>
</svg>