<svg xmlns="http://www.w3.org/2000/svg" viewBox="0 0 61 41" width="61" height="41">
	<defs>
		<clipPath clipPathUnits="userSpaceOnUse" id="cp1">
			<path d="M-340 -1816L1580 -1816L1580 870L-340 870Z" />
		</clipPath>
	</defs>
	<style>
		tspan { white-space:pre }
		.shp0 { fill: #ffffff } 
	</style>
	<g id="My Reward - Badge" clip-path="url(#cp1)">
		<g id="Group 2332">
			<g id="Group 2590">
				<g id="Repeat Grid 21">
					<g id="Layer">
						<g id="Group 2587" style="opacity: 0.996">
							<g id="Group 2578">
								<g id="Component 25 – 11">
									<g id="agreement">
										<path id="Path 4372" class="shp0" d="M48.17 28.51C47 26.07 42.81 22.68 38.75 19.4C36.49 17.57 34.36 15.84 33 14.48L26.77 8.26C26.54 8.02 26.22 7.89 25.89 7.89L14.69 7.89C14.12 7.89 13.62 8.28 13.48 8.84L9.75 23.77C9.64 24.23 9.79 24.71 10.16 25.02C10.54 25.34 11.29 26.13 12.12 26.99C13.22 28.15 14.37 29.35 15.14 29.99C19.77 33.87 25.34 38.06 26.46 38.79C27.79 39.64 29.3 40.14 30.87 40.25C31.88 40.32 32.88 40.02 33.7 39.42C34.61 39.76 35.62 39.75 36.53 39.39C37.66 38.94 38.58 38.09 39.12 37C40.18 37.2 41.28 37.04 42.24 36.55C43.18 36.1 43.92 35.33 44.32 34.38C45.37 34.4 46.39 34.03 47.18 33.35C48.6 32.17 49.01 30.16 48.17 28.51Z" />
										<path id="Path 4373" class="shp0" d="M51.96 26.16L46.99 11.46C46.86 11.1 46.58 10.81 46.21 10.68C46.16 10.67 41.26 8.94 36.36 6.76C30.65 4.2 27.52 5.89 23.04 10.36C21.34 12.06 19.03 15.51 19.63 18.04C19.89 19.11 20.7 19.97 21.77 20.28C24.49 21.23 27.51 20.2 29.08 17.77C29.73 17.67 30.36 17.47 30.95 17.18C31.2 17.07 31.47 16.95 31.84 16.8L47.55 28.68C47.97 29.07 48.6 29.12 49.08 28.8L51.47 27.6C51.94 27.28 52.14 26.7 51.96 26.16Z" />
										<path id="Path 4374" class="shp0" d="M15.55 5.74C13.41 3.72 4.88 3.07 2.32 2.91C1.98 2.9 1.65 3.02 1.39 3.25C1.14 3.49 1 3.81 1 4.16L1 26.56C1 27.25 1.56 27.81 2.24 27.81L9.71 27.81C10.25 27.81 10.73 27.46 10.9 26.95C13.11 20.36 14.8 13.61 15.93 6.75C15.97 6.38 15.82 6 15.55 5.74Z" />
										<path id="Path 4375" class="shp0" d="M59.5 5.4C54.23 5.21 48.98 6.1 44.06 8.01C43.44 8.3 43.17 9.05 43.47 9.67C43.49 9.71 43.51 9.75 43.54 9.79C46.37 16.16 48.81 22.71 50.82 29.38C50.97 29.92 51.46 30.3 52.02 30.3L59.48 30.3C60.17 30.3 60.73 29.75 60.74 29.06C60.74 29.06 60.74 29.06 60.74 29.05L60.74 6.65C60.74 5.96 60.18 5.4 59.5 5.4Z" />
									</g>
								</g>
							</g>
						</g>
					</g>
				</g>
			</g>
		</g>
	</g>
</svg>