<svg xmlns="http://www.w3.org/2000/svg" viewBox="0 0 49 47" width="49" height="47">
	<defs>
		<clipPath clipPathUnits="userSpaceOnUse" id="cp1">
			<path d="M-337 -1154L1583 -1154L1583 1532L-337 1532Z" />
		</clipPath>
	</defs>
	<style>
		tspan { white-space:pre }
		.shp0 { fill: #ffffff } 
	</style>
	<g id="My Reward - Badge" clip-path="url(#cp1)">
		<g id="Group 2332">
			<g id="Group 2589">
				<g id="Repeat Grid 21">
					<g id="Layer">
						<g id="Group 2587" style="opacity: 0.996">
							<g id="Group 2578">
								<g id="Component 25 – 7">
									<path id="Icon awesome-hand-holding-usd" class="shp0" d="M23.1 13.42L27.54 14.69C27.86 14.78 28.08 15.08 28.08 15.41C28.08 15.82 27.74 16.15 27.33 16.15L24.42 16.15C24.1 16.15 23.79 16.08 23.51 15.96C23.08 15.76 22.58 15.81 22.26 16.14L20.7 17.69C20.23 18.16 20.29 18.96 20.84 19.32C21.68 19.88 22.64 20.22 23.66 20.34L23.66 21.91C23.66 22.69 24.3 23.33 25.08 23.33L26.5 23.33C27.28 23.33 27.92 22.69 27.92 21.91L27.92 20.35C30.61 20.03 32.65 17.6 32.29 14.76C32.04 12.72 30.46 11.09 28.49 10.53L24.05 9.26C23.73 9.17 23.51 8.87 23.51 8.54C23.51 8.13 23.85 7.79 24.25 7.79L27.16 7.79C27.48 7.79 27.79 7.86 28.08 7.99C28.5 8.18 29 8.14 29.33 7.81L30.88 6.26C31.35 5.79 31.3 4.99 30.75 4.62C29.91 4.07 28.95 3.73 27.93 3.6L27.93 2.03C27.93 1.25 27.29 0.61 26.51 0.61L25.09 0.61C24.31 0.61 23.67 1.25 23.67 2.03L23.67 3.59C20.98 3.91 18.94 6.35 19.29 9.19C19.55 11.23 21.13 12.85 23.1 13.42ZM47.62 29.73C46.63 28.78 45.09 28.85 44.05 29.73L36.31 36.29C35.36 37.1 34.18 37.53 32.95 37.53L23.04 37.53C22.3 37.53 21.7 36.9 21.7 36.11C21.7 35.33 22.3 34.69 23.04 34.69L29.6 34.69C30.94 34.69 32.17 33.73 32.38 32.33C32.66 30.56 31.36 29.01 29.74 29.01L16.33 29.01C14.06 29.01 11.87 29.84 10.12 31.35L6.23 34.69L1.58 34.69C0.84 34.69 0.24 35.33 0.24 36.11L0.24 44.64C0.24 45.42 0.84 46.06 1.58 46.06L31.48 46.06C32.69 46.06 33.87 45.62 34.83 44.81L47.51 34.07C48.79 33 48.88 30.94 47.62 29.73L47.62 29.73Z" />
								</g>
							</g>
						</g>
					</g>
				</g>
			</g>
		</g>
	</g>
</svg>